<svg width="30" height="38" viewBox="0 0 30 38" fill="none" xmlns="http://www.w3.org/2000/svg">
<path d="M20 19.4752L20.2963 18.7862C19.9879 18.6535 19.6288 18.7421 19.4173 19.003C19.2059 19.2638 19.1936 19.6335 19.3873 19.9078L20 19.4752ZM17.362 20.9087L18.1094 20.8462L18.1093 20.8447L17.362 20.9087ZM17.7428 17.9483L18.4799 18.0869L17.7428 17.9483ZM18.4242 13.1957L19.1726 13.2453L19.1726 13.2449L18.4242 13.1957ZM15.435 5.7002L15.8886 5.10297C15.6254 4.90302 15.2623 4.89897 14.9947 5.09299C14.7271 5.28702 14.6181 5.63337 14.7263 5.94571L15.435 5.7002ZM14.7408 10.5455L15.4485 10.7937L15.4488 10.7928L14.7408 10.5455ZM10.8768 16.1169L10.3255 15.6085L10.8768 16.1169ZM7.61917 20.6361L6.91664 20.3735L6.91654 20.3738L7.61917 20.6361ZM10.4459 30.9091C10.7849 31.1471 11.2526 31.0652 11.4907 30.7262C11.7287 30.3872 11.6468 29.9195 11.3078 29.6814L10.4459 30.9091ZM17.1031 30.2812C16.7144 30.4241 16.5151 30.8552 16.6581 31.244C16.801 31.6327 17.2321 31.832 17.6209 31.689L17.1031 30.2812ZM19.7037 20.1642C20.2901 20.4164 20.6903 20.9927 20.9412 21.8322C21.1901 22.6651 21.25 23.627 21.25 24.423H22.75C22.75 23.5778 22.6896 22.4442 22.3784 21.4027C22.0691 20.3678 21.4693 19.2908 20.2963 18.7862L19.7037 20.1642ZM18.6756 23.3897C19.0955 23.3897 19.4981 23.1896 19.802 22.9719C20.1265 22.7394 20.4389 22.4159 20.6772 22.0301C21.1629 21.2438 21.3724 20.1186 20.6127 19.0426L19.3873 19.9078C19.7168 20.3744 19.6545 20.8314 19.401 21.2418C19.2697 21.4543 19.0956 21.6327 18.9284 21.7526C18.7405 21.8872 18.6462 21.8897 18.6756 21.8897V23.3897ZM16.6146 20.9711C16.6802 21.7562 16.9294 22.3646 17.326 22.7855C17.7232 23.2071 18.2232 23.3897 18.6756 23.3897V21.8897C18.6252 21.8897 18.5238 21.8695 18.4176 21.7568C18.3108 21.6434 18.1545 21.3863 18.1094 20.8462L16.6146 20.9711ZM17.0057 17.8097C16.8861 18.4456 16.7737 19.0422 16.699 19.5609C16.6256 20.0704 16.5795 20.561 16.6147 20.9727L18.1093 20.8447C18.0894 20.6131 18.1132 20.2643 18.1837 19.7748C18.2529 19.2945 18.3584 18.7325 18.4799 18.0869L17.0057 17.8097ZM17.6759 13.1461C17.5635 14.8399 17.2631 16.4412 17.0057 17.8097L18.4799 18.0869C18.7358 16.7265 19.0535 15.0414 19.1726 13.2453L17.6759 13.1461ZM14.9813 6.29742C15.6532 6.80783 16.376 7.94451 16.9167 9.32743C17.4514 10.695 17.7423 12.1351 17.6759 13.1465L19.1726 13.2449C19.2588 11.9337 18.8929 10.2626 18.3137 8.78122C17.7405 7.31527 16.8924 5.86549 15.8886 5.10297L14.9813 6.29742ZM15.4488 10.7928C15.7496 9.9315 16.0438 8.98108 16.2064 8.07607C16.3657 7.19001 16.4184 6.2479 16.1436 5.45468L14.7263 5.94571C14.8734 6.37033 14.8753 7.00271 14.7301 7.81075C14.5883 8.59984 14.3244 9.46313 14.0327 10.2981L15.4488 10.7928ZM11.4282 16.6253C12.9175 15.0102 14.6069 13.1926 15.4485 10.7937L14.0331 10.2972C13.3105 12.3568 11.8489 13.9563 10.3255 15.6085L11.4282 16.6253ZM8.32169 20.8987C8.8805 19.4037 10.0569 18.1125 11.4282 16.6253L10.3255 15.6085C9.00384 17.0418 7.59782 18.5511 6.91664 20.3735L8.32169 20.8987ZM11.3078 29.6814C10.1853 28.8934 9.01714 27.8299 8.33936 26.4167C7.67574 25.0329 7.44691 23.2419 8.3218 20.8984L6.91654 20.3738C5.90775 23.0759 6.13641 25.292 6.98686 27.0653C7.82316 28.8091 9.22565 30.0524 10.4459 30.9091L11.3078 29.6814ZM21.25 24.423C21.25 26.3484 20.0616 29.1932 17.1031 30.2812L17.6209 31.689C21.3016 30.3354 22.75 26.8237 22.75 24.423H21.25Z" fill="#FF64A2"/>
<path d="M11.7023 26.1006C11.7023 26.1006 9.11142 23.4068 11.7024 20.3844C14.2934 17.362 15.1563 15.635 15.1563 15.635" stroke="#FF64A2" stroke-width="1.5" stroke-linecap="round" stroke-linejoin="round"/>
</svg>
