<svg width="24" height="24" viewBox="0 0 24 24" fill="none" xmlns="http://www.w3.org/2000/svg">
<path d="M17.4035 6.35997C16.8883 5.79746 16.0873 5.03815 15.7465 6.75257C15.6306 7.33542 15.3598 7.78483 15.1279 8.14663C14.8778 6.88084 14.1253 5.57066 13.4164 4.68733C13.151 4.35685 12.2097 3.04307 12.0288 0.844987C12.0018 0.516918 11.6122 0.362953 11.3685 0.584193C9.03941 2.69846 7.76093 5.60649 7.71353 8.88011C7.71353 8.88011 6.74365 8.06262 6.21683 6.54179C6.07496 6.13226 5.52585 6.05413 5.28767 6.41626C5.24197 6.48576 5.19954 6.55545 5.1613 6.62306C3.36424 9.80051 2.49981 13.6591 3.29893 17.249C4.63513 23.2609 13.4738 24.9417 18.153 21.1631C22.7311 17.4662 21.2758 10.5855 17.4035 6.35997Z" fill="#F4A32C"/>
<path d="M4.96549 17.7195C4.25797 14.2102 4.99079 10.4448 6.5445 7.30923C6.4261 7.0774 6.31392 6.82112 6.21676 6.54078C6.07489 6.13125 5.52578 6.05305 5.28761 6.41518C5.24191 6.48468 5.19948 6.55437 5.16123 6.62204C3.36424 9.79949 2.49988 13.6581 3.29887 17.2479C3.92035 20.044 6.16485 21.9026 8.8587 22.7114C6.94475 21.7516 5.43778 20.0652 4.96549 17.7195Z" fill="#E89528"/>
<path d="M15.7702 12.9112C15.4553 12.5721 14.9656 12.1145 14.7573 13.1478C14.6865 13.4992 14.521 13.77 14.3791 13.9881C14.2262 13.2251 13.7663 12.4354 13.3329 11.903C13.1708 11.7037 12.5953 10.9118 12.4846 9.58691C12.4681 9.3891 12.2299 9.29642 12.081 9.42965C10.6574 10.7041 9.87578 12.457 9.84685 14.4302C9.84685 14.4302 9.25398 13.9374 8.93195 13.0207C8.84516 12.7738 8.50957 12.7267 8.36408 12.9451C8.33611 12.987 8.31025 13.029 8.28694 13.0697C7.1885 14.9851 6.66005 17.3109 7.14855 19.4748C8.26098 24.4101 17.3791 24.2604 17.9384 18.7393C18.124 16.898 17.4054 14.6707 15.7702 12.9112Z" fill="#EAE9E8"/>
<path d="M9.3128 20.5016C8.81428 18.5576 9.35357 16.4681 10.4745 14.7475C10.4983 14.7109 10.5248 14.6732 10.5533 14.6356C10.7018 14.4394 11.0443 14.4817 11.1328 14.7034C11.4614 15.527 12.0664 15.9698 12.0664 15.9698C12.0908 14.5132 12.6345 13.191 13.6332 12.1304C13.4099 11.8303 12.7266 11.1066 12.5978 9.58785C12.581 9.3892 12.3379 9.29612 12.1859 9.42992C10.7331 10.7099 9.93547 12.4702 9.90594 14.4519C9.90594 14.4519 9.30091 13.957 8.97228 13.0365C8.88382 12.7885 8.54124 12.7412 8.39276 12.9605C8.36421 13.0026 8.33783 13.0448 8.31404 13.0857C7.19307 15.0091 6.65378 17.345 7.1523 19.5182C7.61362 21.5325 9.50886 22.7431 11.6042 23.0352C10.4739 22.4966 9.60521 21.6436 9.3128 20.5016Z" fill="#F7E7A1"/>
<path d="M9.01196 8.35434C9.24595 5.59197 10.3008 3.13578 12.0721 1.26328C12.0541 1.12755 12.039 0.98823 12.0273 0.844987C12.0003 0.516918 11.6107 0.362953 11.367 0.584193C9.52132 2.25958 8.3368 4.4338 7.90047 6.893L7.89981 6.8928C7.86745 7.07521 7.82731 7.34091 7.80194 7.54966C7.80201 7.54986 7.80207 7.54999 7.8022 7.55018C7.74918 7.98586 7.71845 8.42939 7.71191 8.88017C7.76121 8.88978 8.87709 9.46335 9.01196 8.35434Z" fill="#E89528"/>
</svg>
