<svg width="18" height="18" viewBox="0 0 18 18" fill="none" xmlns="http://www.w3.org/2000/svg">
<g clip-path="url(#clip0)">
<path d="M2.25 17.6258C2.0581 17.6258 1.86603 17.5526 1.71973 17.4061C1.42676 17.1133 1.42676 16.6383 1.71973 16.3455L3.69708 14.3682C3.98968 14.0752 4.46503 14.0752 4.75763 14.3682C5.0506 14.6609 5.0506 15.1359 4.75763 15.4287L2.78027 17.4061C2.63397 17.5526 2.44189 17.6258 2.25 17.6258Z" fill="#335262"/>
<path d="M15.7508 17.6258C15.5589 17.6258 15.3668 17.5526 15.2205 17.4061L13.2432 15.4287C12.9502 15.1359 12.9502 14.6609 13.2432 14.3682C13.5358 14.0752 14.0111 14.0752 14.3037 14.3682L16.2811 16.3455C16.574 16.6383 16.574 17.1133 16.2811 17.4061C16.1348 17.5526 15.9427 17.6258 15.7508 17.6258Z" fill="#335262"/>
<path d="M9 16.875C12.7279 16.875 15.75 13.8529 15.75 10.125C15.75 6.39708 12.7279 3.375 9 3.375C5.27208 3.375 2.25 6.39708 2.25 10.125C2.25 13.8529 5.27208 16.875 9 16.875Z" fill="white"/>
<path d="M9 17.625C4.86456 17.625 1.5 14.2604 1.5 10.125C1.5 5.98956 4.86456 2.625 9 2.625C13.1354 2.625 16.5 5.98956 16.5 10.125C16.5 14.2604 13.1354 17.625 9 17.625ZM9 4.125C5.69165 4.125 3 6.81665 3 10.125C3 13.4334 5.69165 16.125 9 16.125C12.3084 16.125 15 13.4334 15 10.125C15 6.81665 12.3084 4.125 9 4.125Z" fill="#43A6DD"/>
<path d="M6.375 13.125C6.27905 13.125 6.1831 13.0884 6.10986 13.0151C5.96338 12.8687 5.96338 12.6313 6.10986 12.4849L8.73486 9.85986C8.88134 9.71338 9.11865 9.71338 9.26513 9.85986C9.41162 10.0063 9.41162 10.2437 9.26513 10.3901L6.64013 13.0151C6.56689 13.0884 6.47095 13.125 6.375 13.125Z" fill="#E86C60"/>
<path d="M9 10.5C8.79273 10.5 8.625 10.3321 8.625 10.125V6.375C8.625 6.16791 8.79273 6 9 6C9.20727 6 9.375 6.16791 9.375 6.375V10.125C9.375 10.3321 9.20727 10.5 9 10.5Z" fill="#223E49"/>
<path d="M12.75 10.5H9C8.79273 10.5 8.625 10.3321 8.625 10.125C8.625 9.91791 8.79273 9.75 9 9.75H12.75C12.9573 9.75 13.125 9.91791 13.125 10.125C13.125 10.3321 12.9573 10.5 12.75 10.5Z" fill="#223E49"/>
<path d="M9 11.25C9.62132 11.25 10.125 10.7463 10.125 10.125C10.125 9.50368 9.62132 9 9 9C8.37868 9 7.875 9.50368 7.875 10.125C7.875 10.7463 8.37868 11.25 9 11.25Z" fill="#223E49"/>
<path d="M6.73464 1.51803C6.919 1.36811 6.92026 1.08474 6.73658 0.933963C5.25233 -0.284397 3.06903 -0.334549 1.52138 0.92397C-0.0262835 2.18249 -0.422377 4.33014 0.46773 6.03164C0.577883 6.2422 0.855555 6.29876 1.03992 6.14884L6.73464 1.51803Z" fill="#335262"/>
<path d="M11.2659 1.51803C11.0816 1.36811 11.0803 1.08474 11.264 0.933963C12.7482 -0.284397 14.9316 -0.334549 16.4792 0.92397C18.0269 2.18249 18.423 4.33014 17.5329 6.03164C17.4227 6.2422 17.145 6.29876 16.9607 6.14884L11.2659 1.51803Z" fill="#335262"/>
</g>
<defs>
<clipPath id="clip0">
<rect width="18" height="18" fill="white"/>
</clipPath>
</defs>
</svg>
