<svg width="18" height="20" viewBox="0 0 18 20" fill="none" xmlns="http://www.w3.org/2000/svg">
<path d="M11.5716 2.5713C11.5716 1.15106 10.4206 0 9.0004 0C7.58024 0 6.42871 1.15106 6.42871 2.5713C6.42871 3.99153 7.58024 5.14286 9.0004 5.14286C10.4206 5.14286 11.5716 3.99153 11.5716 2.5713Z" fill="#5F4BDE"/>
<path d="M10.6 6.00857C12.7459 5.97341 14.8801 5.69231 16.9598 5.17026C17.4064 5.05818 17.8604 5.32449 17.974 5.76523C18.0877 6.20557 17.8177 6.65349 17.3709 6.76578C15.4024 7.25965 13.3875 7.55035 11.3581 7.63366V12.8008C12.8 14.6233 14.516 16.2176 16.447 17.5274C16.8922 17.8293 17.0048 18.4301 16.6988 18.869C16.3928 19.308 15.7836 19.4192 15.3388 19.1174C13.0562 17.569 11.0519 15.656 9.40799 13.4569L5.47967 14.929L4.35467 18.6013C4.19832 19.1114 3.65252 19.3999 3.13549 19.246C2.61865 19.0918 2.3258 18.5533 2.48215 18.0431L3.74629 13.9166C3.83398 13.6301 4.05149 13.4002 4.33522 13.2939L6.55142 12.4634V7.62946C4.55233 7.54176 2.56782 7.25186 0.628673 6.76558C0.182113 6.65329 -0.0876461 6.20537 0.0259686 5.76503C0.139583 5.32449 0.593434 5.05818 1.03979 5.17006C3.11969 5.69211 5.25386 5.97341 7.39958 6.00837H10.614" fill="#5F4BDE"/>
</svg>
