<svg width="15" height="24" viewBox="0 0 15 24" fill="none" xmlns="http://www.w3.org/2000/svg">
<path d="M12 12.8807C12 14.5584 10.8829 17.1237 7.99635 17.6464C10.081 16.5492 11.3836 14.688 10.5458 11.9511C10.2485 13.16 9.31294 13.2218 8.59281 13.0862C7.40188 12.8628 6.97299 11.0016 7.17846 9.88445C7.38393 8.76734 7.77492 7.03781 7.66321 4.67193C7.47769 6.36555 6.61192 7.19141 5.6165 8.00531C4.6111 8.82519 3.42017 9.73484 3.01123 11.4863C2.49058 13.6946 3.91888 16.0266 5.37313 17.4429C3.78922 16.4734 0.932603 14.3669 2.41278 10.2754C3.28851 7.85769 6.17306 6.23788 7.16051 3.33338C7.55549 2.1664 7.90458 0.837835 7.62331 0C8.74042 0.875737 9.7179 3.5588 9.61616 5.15667C9.46655 7.48466 8.83219 9.54932 8.90799 10.463C8.9818 11.3746 9.44859 11.6539 9.78373 11.6539C10.3044 11.6539 10.6774 10.5368 9.95129 9.47551C11.1243 9.99617 12 11.7516 12 12.8807Z" fill="#E64646"/>
<path d="M7.99647 17.6463C8.40541 17.1257 10.0432 15.0969 9.91351 13.8302C9.18739 14.686 7.99647 14.8157 7.34216 14.1853C6.69184 13.5509 5.72434 12.0069 6.39461 9.62507C4.70099 11.209 3.8432 13.7943 5.37125 17.4429C3.91901 16.0265 2.4907 13.6946 3.00736 11.4863C3.41631 9.73679 4.60922 8.82514 5.61263 8.00526C6.60806 7.19136 7.47382 6.36749 7.65934 4.67188C7.77105 7.03577 7.38006 8.76729 7.17459 9.8844C6.96912 11.0015 7.39801 12.8627 8.58894 13.0861C9.30907 13.2218 10.2447 13.1599 10.5419 11.9511C11.3837 14.688 10.0811 16.5492 7.99647 17.6463Z" fill="#FFBF61"/>
<path d="M5.60845 0.527344C5.75408 1.73622 5.92164 2.53815 5.6284 3.03885C5.1636 3.8348 4.3537 4.94592 4.13825 5.93736C3.99861 4.66066 3.95074 4.24972 4.12429 3.6393C4.34572 2.86131 5.38703 1.94967 5.60845 0.527344Z" fill="#FFBF61"/>
<rect x="0.15" y="18.15" width="14.1" height="5.7" rx="0.85" fill="#E64646" stroke="#E64646" stroke-width="0.3"/>
<path d="M1.2002 21.0017C1.2002 20.6526 1.27768 20.3422 1.43265 20.0703C1.58762 19.795 1.80286 19.5819 2.07836 19.4308C2.35731 19.2764 2.67241 19.1992 3.02368 19.1992C3.45415 19.1992 3.82264 19.31 4.12914 19.5315C4.43563 19.7531 4.64054 20.0552 4.74385 20.4378H3.77271C3.70039 20.2901 3.59707 20.1777 3.46276 20.1005C3.3319 20.0233 3.1821 19.9847 3.01335 19.9847C2.74129 19.9847 2.52089 20.077 2.35214 20.2616C2.1834 20.4462 2.09902 20.6929 2.09902 21.0017C2.09902 21.3105 2.1834 21.5573 2.35214 21.7419C2.52089 21.9265 2.74129 22.0188 3.01335 22.0188C3.1821 22.0188 3.3319 21.9802 3.46276 21.903C3.59707 21.8258 3.70039 21.7133 3.77271 21.5657H4.74385C4.64054 21.9483 4.43563 22.2504 4.12914 22.4719C3.82264 22.6901 3.45415 22.7992 3.02368 22.7992C2.67241 22.7992 2.35731 22.7237 2.07836 22.5726C1.80286 22.4182 1.58762 22.2051 1.43265 21.9332C1.27768 21.6613 1.2002 21.3508 1.2002 21.0017Z" fill="white"/>
<path d="M8.57534 22.1497H7.22193L7.00497 22.774H6.08031L7.3924 19.2395H8.4152L9.72728 22.774H8.79229L8.57534 22.1497ZM8.34805 21.4851L7.89863 20.1911L7.45438 21.4851H8.34805Z" fill="white"/>
<path d="M12.0431 22.1094H13.2002V22.774H11.1598V19.2395H12.0431V22.1094Z" fill="white"/>
</svg>
