<svg width="249" height="146" viewBox="0 0 249 146" fill="none" xmlns="http://www.w3.org/2000/svg">
<path d="M86.838 73.3351L111.426 70.1337L118.557 62.2418L120.712 52.7119L113.877 53.6054L112.615 59.5615L108.38 64.252L89.8837 66.6344L86.1695 63.1352L91.9636 36.2581L97.0892 30.4509L116.032 27.9939L118.78 30.6742L117.369 37.6727L124.129 36.7793L126.06 27.9939L119.152 21.3677L93.895 24.5692L85.9466 33.5034L78.9639 65.741L86.838 73.3351ZM42.4905 79.0679L27.1879 53.9776L53.4845 29.7808L43.0847 31.1209L11.8854 60.0827L17.3825 34.4713L10.6226 35.3647L0 84.5773L6.75985 83.6839L9.65692 70.357L22.0624 58.817L35.0621 79.9613L42.4905 79.0679ZM131.854 67.5279L134.751 54.2754L147.231 42.7354L160.231 63.8797L167.585 62.9118L152.282 37.7471L178.504 13.5503L168.105 14.8904L136.905 43.8522L142.402 18.2408L135.643 19.1342L125.02 68.3468L131.854 67.5279ZM55.6387 71.2504L45.7589 72.5161L44.4961 78.7701L70.7184 75.3453L72.1298 69.0913L62.3243 70.357L70.1984 33.6523L80.0039 32.3866L81.2667 26.1326L55.0445 29.5574L53.6331 35.8114L63.4385 34.5457L55.6387 71.2504ZM203.464 72.2183L195.887 64.922L166.099 68.7935L155.476 118.006L162.236 117.113L166.619 96.8619L187.864 94.1071L190.464 113.39L200.121 112.124L201.384 105.871L195.961 106.541L194.03 91.9481L200.79 84.4284L203.464 72.2183ZM194.773 81.9715L189.796 87.6298L168.03 90.459L171.447 74.4519L192.916 71.6972L196.258 74.973L194.773 81.9715ZM208.589 63.2841L207.178 69.8359L223.966 67.6768L214.755 110.338L221.515 109.444L230.652 66.7833L247.366 64.6242L248.926 58.0725L208.589 63.2841ZM118.557 74.973L78.1468 80.1847L76.7354 86.7364L93.5236 84.5773L84.3124 127.238L91.0722 126.345L100.209 83.6839L116.923 81.5248L118.557 74.973ZM138.168 72.3672L138.02 71.5482L137.5 72.4417L134.083 72.8884L103.552 124.707L111.352 123.665L120.192 108.625L141.734 105.871L144.482 119.421L151.094 118.527L141.288 71.9205L138.168 72.3672ZM124.054 101.85L136.46 80.7058L140.397 99.7655L124.054 101.85ZM42.3419 84.8007L34.9878 92.9904L32.6107 104.307L38.5534 110.04L60.4672 110.189L62.5471 112.273L61.0615 119.644L56.6044 124.632L37.3649 127.089L34.7649 124.632L36.1763 118.155L29.4165 119.049L27.5594 127.238L34.3935 133.716L59.7243 130.44L67.0785 122.25L69.7527 109.668L63.7357 103.786L41.7476 103.637L39.8162 101.776L41.1533 95.6706L45.6104 90.6824L64.6271 88.2255L67.227 90.7568L65.8899 96.7874L72.6498 95.894L74.284 88.151L67.5242 81.5992L42.3419 84.8007Z" fill="white"/>
<path d="M182.887 0L12.7769 23.3779L11.3655 30.8231L181.476 7.44518L182.887 0Z" fill="white"/>
<path d="M241.497 110.189L33.9478 138.555L32.5364 146L240.086 117.634L241.497 110.189Z" fill="white"/>
</svg>
